name Walk3.mot
datacolumns 19
datarows 20
range 2.00600000 2.02500000
endheader

                time	   L_ground_force_vx	   L_ground_force_vy	   L_ground_force_vz	   L_ground_force_px	   L_ground_force_py	   L_ground_force_pz	   R_ground_force_vx	   R_ground_force_vy	   R_ground_force_vz	   R_ground_force_px	   R_ground_force_py	   R_ground_force_pz	   L_ground_torque_x	   L_ground_torque_y	   L_ground_torque_z	   R_ground_torque_x	   R_ground_torque_y	   R_ground_torque_z	
          2.00600000	          0.00000000	          0.00000000	          0.00000000	          0.00000000	          0.00000000	          0.00000000	        -24.22213140	        836.54786396	        -77.46819037	          0.43525275	          0.00000000	          0.18821467	          0.00000000	          0.00000000	          0.00000000	          0.00000000	          9.23907031	          0.00000000	
          2.00700000	          0.00000000	          0.00000000	          0.00000000	          0.00000000	          0.00000000	          0.00000000	        -23.89592061	        834.73731881	        -77.29071147	          0.43549799	          0.00000000	          0.18825713	          0.00000000	          0.00000000	          0.00000000	          0.00000000	          9.16715838	          0.00000000	
          2.00800000	          0.00000000	          0.00000000	          0.00000000	          0.00000000	          0.00000000	          0.00000000	        -23.55655706	        832.87016046	        -77.07482645	          0.43576246	          0.00000000	          0.18830413	          0.00000000	          0.00000000	          0.00000000	          0.00000000	          9.09207126	          0.00000000	
          2.00900000	          0.00000000	          0.00000000	          0.00000000	          0.00000000	          0.00000000	          0.00000000	        -23.19809351	        830.94635733	        -76.83177667	          0.43606085	          0.00000000	          0.18835885	          0.00000000	          0.00000000	          0.00000000	          0.00000000	          9.01432777	          0.00000000	
          2.01000000	          0.00000000	          0.00000000	          0.00000000	          0.00000000	          0.00000000	          0.00000000	        -22.81394491	        829.01123184	        -76.58500262	          0.43638957	          0.00000000	          0.18843237	          0.00000000	          0.00000000	          0.00000000	          0.00000000	          8.93624381	          0.00000000	
          2.01100000	          0.00000000	          0.00000000	          0.00000000	          0.00000000	          0.00000000	          0.00000000	        -22.40675749	        827.11253455	        -76.35792435	          0.43672723	          0.00000000	          0.18852870	          0.00000000	          0.00000000	          0.00000000	          0.00000000	          8.85879502	          0.00000000	
          2.01200000	          0.00000000	          0.00000000	          0.00000000	          0.00000000	          0.00000000	          0.00000000	        -21.99376681	        825.26452922	        -76.16695082	          0.43704910	          0.00000000	          0.18863630	          0.00000000	          0.00000000	          0.00000000	          0.00000000	          8.78111814	          0.00000000	
          2.01300000	          0.00000000	          0.00000000	          0.00000000	          0.00000000	          0.00000000	          0.00000000	        -21.59847877	        823.46437792	        -76.01529036	          0.43734043	          0.00000000	          0.18873580	          0.00000000	          0.00000000	          0.00000000	          0.00000000	          8.70460514	          0.00000000	
          2.01400000	          0.00000000	          0.00000000	          0.00000000	          0.00000000	          0.00000000	          0.00000000	        -21.23733646	        821.70806670	        -75.88749940	          0.43759391	          0.00000000	          0.18881344	          0.00000000	          0.00000000	          0.00000000	          0.00000000	          8.63381774	          0.00000000	
          2.01500000	          0.00000000	          0.00000000	          0.00000000	          0.00000000	          0.00000000	          0.00000000	        -20.91394295	        819.98318459	        -75.75565347	          0.43780794	          0.00000000	          0.18886943	          0.00000000	          0.00000000	          0.00000000	          0.00000000	          8.57246184	          0.00000000	
          2.01600000	          0.00000000	          0.00000000	          0.00000000	          0.00000000	          0.00000000	          0.00000000	        -20.61982046	        818.27737183	        -75.59612044	          0.43799619	          0.00000000	          0.18891129	          0.00000000	          0.00000000	          0.00000000	          0.00000000	          8.51983565	          0.00000000	
          2.01700000	          0.00000000	          0.00000000	          0.00000000	          0.00000000	          0.00000000	          0.00000000	        -20.34191763	        816.58906309	        -75.40484252	          0.43818879	          0.00000000	          0.18894228	          0.00000000	          0.00000000	          0.00000000	          0.00000000	          8.47214458	          0.00000000	
          2.01800000	          0.00000000	          0.00000000	          0.00000000	          0.00000000	          0.00000000	          0.00000000	        -20.07312758	        814.91822719	        -75.19886429	          0.43841360	          0.00000000	          0.18896497	          0.00000000	          0.00000000	          0.00000000	          0.00000000	          8.42700003	          0.00000000	
          2.01900000	          0.00000000	          0.00000000	          0.00000000	          0.00000000	          0.00000000	          0.00000000	        -19.81073721	        813.26346819	        -74.99874590	          0.43868166	          0.00000000	          0.18898778	          0.00000000	          0.00000000	          0.00000000	          0.00000000	          8.38295305	          0.00000000	
          2.02000000	          0.00000000	          0.00000000	          0.00000000	          0.00000000	          0.00000000	          0.00000000	        -19.54831145	        811.63795039	        -74.81097363	          0.43898810	          0.00000000	          0.18902113	          0.00000000	          0.00000000	          0.00000000	          0.00000000	          8.33577053	          0.00000000	
          2.02100000	          0.00000000	          0.00000000	          0.00000000	          0.00000000	          0.00000000	          0.00000000	        -19.27820311	        810.07161826	        -74.62885996	          0.43931035	          0.00000000	          0.18907165	          0.00000000	          0.00000000	          0.00000000	          0.00000000	          8.28096336	          0.00000000	
          2.02200000	          0.00000000	          0.00000000	          0.00000000	          0.00000000	          0.00000000	          0.00000000	        -18.99828942	        808.58499508	        -74.44111202	          0.43960867	          0.00000000	          0.18913925	          0.00000000	          0.00000000	          0.00000000	          0.00000000	          8.21888600	          0.00000000	
          2.02300000	          0.00000000	          0.00000000	          0.00000000	          0.00000000	          0.00000000	          0.00000000	        -18.70906435	        807.17690381	        -74.23706584	          0.43984894	          0.00000000	          0.18921857	          0.00000000	          0.00000000	          0.00000000	          0.00000000	          8.15417061	          0.00000000	
          2.02400000	          0.00000000	          0.00000000	          0.00000000	          0.00000000	          0.00000000	          0.00000000	        -18.40902996	        805.83751532	        -74.01285859	          0.44002989	          0.00000000	          0.18930149	          0.00000000	          0.00000000	          0.00000000	          0.00000000	          8.09162743	          0.00000000	
          2.02500000	          0.00000000	          0.00000000	          0.00000000	          0.00000000	          0.00000000	          0.00000000	        -18.10104653	        804.55005452	        -73.77484790	          0.44018042	          0.00000000	          0.18937565	          0.00000000	          0.00000000	          0.00000000	          0.00000000	          8.03316473	          0.00000000	
